<svg width="1024" height="1024" viewBox="0 0 1024 1024" fill="none" xmlns="http://www.w3.org/2000/svg">
<g clip-path="url(#clip0_0_42)">
<rect width="1024" height="1024" fill="black"/>
<g filter="url(#filter0_d_0_42)">
<path d="M533.841 759.826C564.168 755.915 586.894 750.335 610.722 740.948C685.042 711.671 739.371 653.778 759.561 582.347C772.573 536.312 772.111 482.907 758.305 437.021C746.144 396.603 720.171 357.189 686.847 328.582C669.509 313.699 653.556 303.352 630.416 291.981C598.689 276.39 572.507 269.087 528.16 263.458C523.42 262.856 487.01 262.502 408.671 262.296L296 262V512V762L408.671 761.719C518.301 761.445 521.68 761.394 533.841 759.826ZM319.481 711.187V686.572L492.503 513.571L665.526 340.57L668.422 342.765C670.015 343.973 675.75 349.3 681.166 354.604L691.013 364.248L505.247 550.025L319.481 735.801V711.187ZM319.481 629.769V604.776L467.171 457.104L614.862 309.433L621.503 312.695C629.115 316.434 646.701 326.53 646.701 327.16C646.701 327.393 573.077 401.198 483.091 491.172L319.481 654.762V629.769ZM319.481 548.731V523.737L436.344 406.89L553.206 290.043L558.799 291.22C571.371 293.864 592.165 299.726 592.165 300.626C592.165 300.873 530.811 362.421 455.823 437.399L319.481 573.724V548.731ZM319.481 467.313V442.698L398.566 363.625L477.652 284.551L498.74 285.047C510.338 285.32 520.937 285.799 522.293 286.113L524.759 286.684L422.12 389.306L319.481 491.928V467.313ZM319.481 386.273V361.657L357.935 323.213L396.39 284.769L420.806 284.969L445.223 285.169L382.352 348.028L319.481 410.888V386.273ZM319.481 308.268V284.79H343.147H366.813L343.341 308.268C330.431 321.182 319.782 331.747 319.675 331.747C319.568 331.747 319.481 321.182 319.481 308.268Z" fill="black"/>
<path d="M533.841 759.826C564.168 755.915 586.894 750.335 610.722 740.948C685.042 711.671 739.371 653.778 759.561 582.347C772.573 536.312 772.111 482.907 758.305 437.021C746.144 396.603 720.171 357.189 686.847 328.582C669.509 313.699 653.556 303.352 630.416 291.981C598.689 276.39 572.507 269.087 528.16 263.458C523.42 262.856 487.01 262.502 408.671 262.296L296 262V512V762L408.671 761.719C518.301 761.445 521.68 761.394 533.841 759.826ZM319.481 711.187V686.572L492.503 513.571L665.526 340.57L668.422 342.765C670.015 343.973 675.75 349.3 681.166 354.604L691.013 364.248L505.247 550.025L319.481 735.801V711.187ZM319.481 629.769V604.776L467.171 457.104L614.862 309.433L621.503 312.695C629.115 316.434 646.701 326.53 646.701 327.16C646.701 327.393 573.077 401.198 483.091 491.172L319.481 654.762V629.769ZM319.481 548.731V523.737L436.344 406.89L553.206 290.043L558.799 291.22C571.371 293.864 592.165 299.726 592.165 300.626C592.165 300.873 530.811 362.421 455.823 437.399L319.481 573.724V548.731ZM319.481 467.313V442.698L398.566 363.625L477.652 284.551L498.74 285.047C510.338 285.32 520.937 285.799 522.293 286.113L524.759 286.684L422.12 389.306L319.481 491.928V467.313ZM319.481 386.273V361.657L357.935 323.213L396.39 284.769L420.806 284.969L445.223 285.169L382.352 348.028L319.481 410.888V386.273ZM319.481 308.268V284.79H343.147H366.813L343.341 308.268C330.431 321.182 319.782 331.747 319.675 331.747C319.568 331.747 319.481 321.182 319.481 308.268Z" fill="url(#paint0_linear_0_42)"/>
</g>
</g>
<defs>
<filter id="filter0_d_0_42" x="180.552" y="127.646" width="702.896" height="868.896" filterUnits="userSpaceOnUse" color-interpolation-filters="sRGB">
<feFlood flood-opacity="0" result="BackgroundImageFix"/>
<feColorMatrix in="SourceAlpha" type="matrix" values="0 0 0 0 0 0 0 0 0 0 0 0 0 0 0 0 0 0 127 0" result="hardAlpha"/>
<feOffset dy="49.7604"/>
<feGaussianBlur stdDeviation="51.224"/>
<feColorMatrix type="matrix" values="0 0 0 0 0 0 0 0 0 0 0 0 0 0 0 0 0 0 0.12 0"/>
<feBlend mode="normal" in2="BackgroundImageFix" result="effect1_dropShadow_0_42"/>
<feBlend mode="normal" in="SourceGraphic" in2="effect1_dropShadow_0_42" result="shape"/>
</filter>
<linearGradient id="paint0_linear_0_42" x1="532.5" y1="262" x2="532.5" y2="762" gradientUnits="userSpaceOnUse">
<stop stop-color="#FAFBFD"/>
<stop offset="1" stop-color="#EDEDED"/>
</linearGradient>
<clipPath id="clip0_0_42">
<rect width="1024" height="1024" fill="white"/>
</clipPath>
</defs>
</svg>
