<svg width="304" height="400" viewBox="0 0 304 400" fill="none" xmlns="http://www.w3.org/2000/svg">
<path d="M87.832 73.981C89.481 72.426 91.24 70.944 93.166 69.574C106.629 59.833 125.036 54.981 148.277 54.981C171.518 54.981 190.851 61.056 206.203 73.222C219.629 83.852 228.221 97.593 231.906 114.37H295.777C293.98 93.759 287.388 75.185 275.98 58.63C263.24 40.1111 245.777 25.7222 223.647 15.4444C201.536 5.1481 175.277 0 148.277 0C126.258 0 106.11 3.2407 87.832 9.7222V73.981Z" fill="white"/>
<path d="M222.629 326.019C222.111 326.537 218.759 329 216.574 330.5C201.778 340.611 182.37 345.648 158.37 345.648C130.981 345.648 108.648 338.519 91.407 324.296C75.759 311.444 66.5 294.926 63.463 274.704L0 274.148C1.6296 297.333 8.426 318.167 20.444 336.63C33.518 356.815 51.926 372.463 75.556 383.463C99.222 394.463 126.555 400 157.722 400C181.537 400 203.167 396.389 222.666 389.148V326.019H222.629Z" fill="white"/>
<path d="M68.3369 207.63C86.3559 215.149 107.541 220.964 131.93 225.056L134.763 225.612C160.597 230.482 180.282 234.741 193.8 238.501C207.319 242.26 218.189 248.075 226.448 255.927C234.652 263.778 238.819 274.223 238.819 287.334C238.819 300.445 235.115 311.501 227.782 320.39H296.763C301.596 307.982 304.004 294.686 304.004 280.519C304.004 256.186 298.078 236.556 286.263 221.575L286.374 221.63C274.559 206.649 259.43 195.649 241.078 188.501C222.726 181.371 200.782 175.556 175.282 171.075H174.726C150.004 166.593 130.874 162.334 117.356 158.186C103.893 154.093 93.0779 148.501 85.0409 141.371C77.0039 134.297 72.9479 124.167 72.9479 111.075C72.9479 97.9821 76.1889 88.1121 82.7079 79.6121H13.9479C10.1149 90.8151 8.1709 102.815 8.1709 115.612C8.1709 139.556 13.6519 159.019 24.7449 173.945C35.7819 188.927 50.2999 200.149 68.3189 207.612L68.3369 207.63Z" fill="white"/>
</svg>
